<?xml version="1.0" encoding="UTF-8"?>
<svg id="Ebene_2" xmlns="http://www.w3.org/2000/svg" version="1.1" viewBox="0 0 310.7 312.3">
  <!-- Generator: Adobe Illustrator 30.4.0, SVG Export Plug-In . SVG Version: 2.1.4 Build 226)  -->
  <defs>
    <style>
      .st0, .st1 {
        fill: #011923;
      }

      .st2, .st1 {
        isolation: isolate;
      }

      .st3 {
        fill: #ff5e04;
      }

      .st1 {
        font-family: BarlowCondensed-BoldItalic, 'Barlow Condensed';
        font-size: 294.6px;
        font-style: italic;
        font-weight: 700;
        letter-spacing: -.2em;
      }
    </style>
  </defs>
  <g id="Ebene_1-2">
    <g class="st2">
      <text class="st1" transform="translate(-2 250.4)"><tspan x="0" y="0">R</tspan></text>
    </g>
    <path class="st3" d="M87.2,198.9l.9-8.5c.3-2.1,1.8-3.5,3.8-3.5h33.3c2.1,0,3.2,1.5,3,3.5l-.9,6.5c-1.5,12.4,4.1,20.3,13.3,20.3s17.1-7.7,18.3-19.1c1.8-12.7-5.9-19.1-23.9-33.9-19.2-15.6-40.4-33-36.2-67.2,4.1-33.6,29.5-55.1,61.9-55.1s53,22.7,48.9,56.6l-.9,7.1c-.3,2.1-1.8,3.5-3.8,3.5h-32.7c-2.1,0-3.2-1.5-2.9-3.5l.9-8c1.5-12.1-4.1-20-13.9-20s-16.2,7.1-17.7,19.4c-1.5,12.4,4.1,19.2,22.7,34.5,26.8,22.4,41.2,35.3,37.7,64.8-4.4,34.8-29.8,56.6-62.8,56.6s-53-22.1-48.9-53.9h0Z"/>
    <path class="st0" d="M272.4,46.9h33.3c2.1,0,3.2,1.5,3,3.5l-24.5,199.2c-.3,2.1-1.8,3.5-3.8,3.5h-37.7c-2.1,0-2.9-1.2-3.2-2.9l-21.5-114c-.3-1.2-1.8-.9-1.8.3l-13.6,113.1c-.3,2.1-2.1,3.5-3.8,3.5h-33.3c-2.1,0-3.2-1.5-2.9-3.5l24.4-199.2c.3-2.1,1.8-3.5,3.8-3.5h37.4c2.1,0,2.9,1.2,3.2,3l21.8,114c.3,1.2,1.8.9,1.8-.3l13.5-113.1c.3-2.1,2.1-3.5,3.8-3.5h0Z"/>
  </g>
</svg>